<svg xmlns="http://www.w3.org/2000/svg" xmlns:xlink="http://www.w3.org/1999/xlink" width="128" height="128" viewBox="0 0 128 128" fill="none"><g opacity="1"  transform="translate(0 0)  rotate(0)"><mask id="bg-mask-0" fill="white"><use transform="translate(0 0)  rotate(0)" xlink:href="#path_0"></use></mask><g mask="url(#bg-mask-0)" ><path id="主体" fill-rule="evenodd" style="fill:#40794F" opacity="1" d="M67.867 104.601C78.297 102.091 86.957 94.4711 91.737 85.8511C94.667 80.5711 97.337 75.1311 98.027 62.5311C98.667 51.1011 96.977 32.6411 91.957 25.9311C85.497 25.9311 78.067 26.9711 68.477 29.4511C59.697 31.7311 49.307 37.9511 42.647 44.1411C29.197 56.6311 22.467 85.2711 43.227 102.891C55.337 105.831 60.747 106.311 67.867 104.601Z"></path><path  id="主体" style="fill:#40794F; opacity:1;" d="M67.399,102.657c2.39533,-0.57667 4.73397,-1.44767 7.0159,-2.613c2.18707,-1.11747 4.2692,-2.47757 6.2464,-4.0803c1.9116,-1.54967 3.66597,-3.2776 5.2631,-5.1838c1.5624,-1.86473 2.9169,-3.83097 4.0635,-5.8987c0.8682,-1.56453 1.5539,-2.8885 2.0571,-3.9719c0.69747,-1.50193 1.28663,-3.02463 1.7675,-4.5681c0.565,-1.8134 1.0249,-3.78717 1.3797,-5.9213c0.3974,-2.3902 0.67667,-5.05627 0.8378,-7.9982c0.16173,-2.88853 0.1705,-6.02273 0.0263,-9.4026c-0.15233,-3.57107 -0.45973,-6.99737 -0.9222,-10.2789c-0.5016,-3.559 -1.1472,-6.65673 -1.9368,-9.2932c-0.8388,-2.8008 -1.78603,-4.90673 -2.8417,-6.3178l1.6014,-1.1981v2c-3.1956,0 -6.6204,0.26953 -10.2744,0.8086c-3.828,0.56467 -8.06297,1.44723 -12.7049,2.6477c-2.044,0.5308 -4.21403,1.2928 -6.5101,2.286c-2.21027,0.95613 -4.44383,2.08563 -6.7007,3.3885c-2.19993,1.27007 -4.31083,2.64027 -6.3327,4.1106c-2.0086,1.46067 -3.81713,2.9385 -5.4256,4.4335c-1.58427,1.4712 -3.05747,3.16503 -4.4196,5.0815c-1.3756,1.93533 -2.5863,4.02513 -3.6321,6.2694c-1.06927,2.29447 -1.92833,4.67003 -2.5772,7.1267c-0.6708,2.53953 -1.09627,5.08923 -1.2764,7.6491c-0.1878,2.66833 -0.1039,5.2832 0.2517,7.8446c0.37293,2.68593 1.03843,5.26387 1.9965,7.7338c1.01,2.60393 2.3325,5.05347 3.9675,7.3486c1.7326,2.4322 3.8,4.66763 6.2022,6.7063l-1.2942,1.525l0.4718,-1.943c3.11107,0.75467 5.72823,1.32967 7.8515,1.725c2.26427,0.42067 4.2687,0.69467 6.0133,0.822c1.7384,0.12667 3.39743,0.12033 4.9771,-0.019c1.52093,-0.134 3.14067,-0.40733 4.8592,-0.82zM68.334,106.546c-1.9106,0.45867 -3.7247,0.76367 -5.4423,0.915c-1.79347,0.158 -3.6664,0.166 -5.6188,0.024c-1.89253,-0.138 -4.04383,-0.43133 -6.4539,-0.88c-2.19447,-0.408 -4.88243,-0.998 -8.0639,-1.77l-0.4608,-0.112l-0.3615,-0.307c-2.65567,-2.254 -4.94623,-4.7325 -6.8717,-7.4355c-1.82853,-2.56687 -3.30817,-5.30783 -4.4389,-8.2229c-1.07047,-2.75967 -1.81353,-5.63643 -2.2292,-8.6303c-0.39387,-2.83733 -0.48713,-5.72913 -0.2798,-8.6754c0.1978,-2.8106 0.66417,-5.6072 1.3991,-8.3898c0.70967,-2.68653 1.6493,-5.28477 2.8189,-7.7947c1.14853,-2.46467 2.481,-4.76377 3.9974,-6.8973c1.52067,-2.13947 3.17293,-4.03747 4.9568,-5.694c1.72593,-1.60413 3.658,-3.18367 5.7962,-4.7386c2.1354,-1.55293 4.3639,-2.99953 6.6855,-4.3398c2.39007,-1.3798 4.76087,-2.5783 7.1124,-3.5955c2.4852,-1.07507 4.8508,-1.9042 7.0968,-2.4874c4.77967,-1.23607 9.15387,-2.14683 13.1226,-2.7323c3.84753,-0.5676 7.4669,-0.8514 10.8581,-0.8514h1.0015l0.5999,0.8019c1.33927,1.79007 2.4962,4.31223 3.4708,7.5665c0.8474,2.8296 1.53597,6.12377 2.0657,9.8825c0.48067,3.4102 0.80003,6.96573 0.9581,10.6666c0.14933,3.5112 0.13967,6.77513 -0.029,9.7918c-0.16913,3.08867 -0.46447,5.90053 -0.886,8.4356c-0.38487,2.31487 -0.88703,4.46653 -1.5065,6.455c-0.5336,1.71273 -1.1865,3.40043 -1.9587,5.0631c-0.54353,1.17033 -1.27243,2.5793 -2.1867,4.2269c-1.2706,2.29127 -2.76913,4.4672 -4.4956,6.5278c-1.7622,2.10327 -3.69897,4.01067 -5.8103,5.7222c-2.1944,1.77867 -4.50967,3.29033 -6.9458,4.535c-2.56353,1.30933 -5.1967,2.28933 -7.8995,2.94z"></path><path  id="外轮廓" style="fill:#40794F; opacity:1;" d="M68.6418,114.716c3.2856,-0.79133 6.4928,-1.98933 9.6216,-3.594c2.99387,-1.53533 5.84427,-3.405 8.5512,-5.609c2.614,-2.12867 5.014,-4.50307 7.2,-7.1232c2.1376,-2.562 3.99267,-5.2646 5.5652,-8.1078c1.18013,-2.1362 2.11387,-3.94827 2.8012,-5.4362c0.95533,-2.06667 1.76233,-4.16237 2.421,-6.2871c0.77267,-2.4908 1.40167,-5.19957 1.887,-8.1263c0.542,-3.26653 0.92333,-6.9073 1.144,-10.9223c0.216,-3.94027 0.22567,-8.21173 0.029,-12.8144c-0.208,-4.869 -0.62567,-9.53823 -1.253,-14.0077c-0.68267,-4.86353 -1.56233,-9.09897 -2.639,-12.7063c-1.15733,-3.8784 -2.47467,-6.80667 -3.952,-8.7848l1.602,-1.1969v2c-4.34573,0 -9.00083,0.3682 -13.9653,1.1046c-5.19773,0.771 -10.93793,1.9746 -17.2206,3.6108c-2.79473,0.7264 -5.75843,1.7696 -8.8911,3.1296c-3.00747,1.30573 -6.0466,2.84873 -9.1174,4.629c-2.9906,1.73387 -5.86103,3.60513 -8.6113,5.6138c-2.73407,1.9968 -5.1973,4.01827 -7.3897,6.0644c-2.17287,2.0268 -4.19243,4.35893 -6.0587,6.9964c-1.88153,2.659 -3.53717,5.52947 -4.9669,8.6114c-1.46107,3.14933 -2.63493,6.4099 -3.5216,9.7817c-0.91693,3.48693 -1.49853,6.98837 -1.7448,10.5043c-0.25693,3.66807 -0.1419,7.26347 0.3451,10.7862c0.51113,3.69747 1.4235,7.24693 2.7371,10.6484c1.3852,3.58687 3.1987,6.961 5.4405,10.1224c2.37347,3.34667 5.20423,6.42167 8.4923,9.225l-1.2976,1.522l0.473,-1.943c4.2138,1.02533 7.75893,1.80633 10.6354,2.343c3.08147,0.57467 5.8118,0.949 8.191,1.123c2.38273,0.174 4.6587,0.16467 6.8279,-0.028c2.087,-0.18467 4.30827,-0.561 6.6638,-1.129zM69.5789,118.604c-2.548,0.61467 -4.96413,1.02333 -7.2484,1.226c-2.38387,0.21133 -4.87467,0.222 -7.4724,0.032c-2.5276,-0.18467 -5.4053,-0.578 -8.6331,-1.18c-2.9478,-0.54933 -6.5638,-1.34567 -10.848,-2.389l-0.4625,-0.112l-0.3621,-0.309c-3.54093,-3.01933 -6.5942,-6.33767 -9.1598,-9.955c-2.4344,-3.43267 -4.40413,-7.0978 -5.9092,-10.9954c-1.42513,-3.69027 -2.41447,-7.53747 -2.968,-11.5416c-0.525,-3.79753 -0.64933,-7.6687 -0.373,-11.6135c0.2638,-3.76567 0.88597,-7.513 1.8665,-11.242c0.94693,-3.601 2.20077,-7.08363 3.7615,-10.4479c1.53187,-3.302 3.3086,-6.3815 5.3302,-9.2385c2.02427,-2.86067 4.22253,-5.39743 6.5948,-7.6103c2.3096,-2.15547 4.89617,-4.27887 7.7597,-6.3702c2.8638,-2.09167 5.8519,-4.0397 8.9643,-5.8441c3.20453,-1.85787 6.38143,-3.4704 9.5307,-4.8376c3.323,-1.44267 6.4816,-2.5531 9.4758,-3.3313c6.4216,-1.6724 12.30223,-2.90463 17.6419,-3.6967c5.15907,-0.76527 10.0098,-1.1479 14.5522,-1.1479h1.002l0.6,0.8031c1.76133,2.3576 3.28833,5.70247 4.581,10.0346c1.13467,3.80007 2.05733,8.2315 2.768,13.2943c0.64533,4.59727 1.07467,9.39493 1.288,14.393c0.202,4.73267 0.19133,9.1343 -0.032,13.2049c-0.22867,4.16073 -0.626,7.94633 -1.192,11.3568c-0.51467,3.10653 -1.18533,5.99223 -2.012,8.6571c-0.71133,2.2932 -1.58167,4.55323 -2.611,6.7801c-0.728,1.57467 -1.70533,3.4727 -2.932,5.6941c-1.69533,3.06567 -3.69333,5.977 -5.994,8.734c-2.3506,2.81733 -4.93247,5.37167 -7.7456,7.663c-2.9244,2.38133 -6.00837,4.40367 -9.2519,6.067c-3.41193,1.74933 -6.91537,3.05667 -10.5103,3.922z"></path><g opacity="1"  transform="translate(40.30908203125 44.251808166503906)  rotate(0)"><path  id="分叶脉3" style="fill:#FFFFFF; opacity:1;" d="M39.3305,17.5242c0,0.0308 -0.00283,0.06133 -0.0085,0.0916c-0.0056,0.03033 -0.01397,0.05987 -0.0251,0.0886c-0.01113,0.02873 -0.0248,0.05623 -0.041,0.0825c-0.01613,0.0262 -0.03457,0.0507 -0.0553,0.0735c-0.02073,0.0228 -0.04337,0.04353 -0.0679,0.0622c-0.0246,0.0186 -0.05067,0.0348 -0.0782,0.0486c-0.02753,0.0138 -0.05613,0.02497 -0.0858,0.0335c-0.0296,0.00853 -0.05973,0.01427 -0.0904,0.0172v0.0002c-3.74207,0.34333 -7.3377,1.08233 -10.7869,2.217c-2.0958,0.68953 -4.12037,1.5267 -6.0737,2.5115l-0.4502,-0.8929c1.9978,-1.00727 4.06827,-1.86343 6.2114,-2.5685c3.5162,-1.15673 7.18017,-1.91053 10.9919,-2.2614c0.01987,-0.0024 0.03977,-0.0036 0.0597,-0.0036c0.03287,0 0.0654,0.0032 0.0976,0.0096c0.03213,0.0064 0.06337,0.01587 0.0937,0.0284c0.03033,0.0126 0.05917,0.028 0.0865,0.0462c0.02727,0.01827 0.05253,0.039 0.0758,0.0622c0.0232,0.0232 0.0439,0.04847 0.0621,0.0758c0.01827,0.02727 0.03367,0.05607 0.0462,0.0864c0.0126,0.03033 0.0221,0.0616 0.0285,0.0938c0.0064,0.0322 0.0096,0.06473 0.0096,0.0976z"></path><path  id="分叶脉2" style="fill:#FFFFFF; opacity:1;" d="M10.747,25.902c0.16073,1.07913 0.37767,2.6453 0.6508,4.6985c0.2006,1.50787 0.35423,2.6358 0.4609,3.3838c0.1768,1.24013 0.3514,2.36467 0.5238,3.3736l-0.9857,0.1684c-0.17393,-1.018 -0.34997,-2.1516 -0.5281,-3.4008c-0.10713,-0.75113 -0.2612,-1.8822 -0.4622,-3.3932c-0.27239,-2.048 -0.48859,-3.609 -0.64859,-4.683c-0.26754,-1.79593 -0.55133,-3.47937 -0.85138,-5.0503c-0.75775,-3.96733 -1.77254,-7.99683 -3.04437,-12.0885c-0.01502,-0.04833 -0.02253,-0.09781 -0.02253,-0.14842c0,-0.03283 0.0032,-0.06534 0.00961,-0.09754c0.0064,-0.0322 0.01588,-0.06347 0.02845,-0.0938c0.01257,-0.03033 0.02797,-0.05915 0.0462,-0.08644c0.01824,-0.0273 0.03897,-0.05256 0.06219,-0.07577c0.02321,-0.02321 0.04847,-0.04394 0.07576,-0.06218c0.0273,-0.01824 0.05612,-0.03364 0.08645,-0.04621c0.03033,-0.01256 0.0616,-0.02204 0.09379,-0.02845c0.0322,-0.00641 0.06472,-0.00961 0.09755,-0.00961c0.05334,0 0.10535,0.00832 0.15603,0.02497c0.05068,0.01665 0.09749,0.04079 0.14044,0.07242c0.04295,0.03163 0.0799,0.06917 0.11084,0.11262c0.03094,0.04345 0.05433,0.09065 0.07016,0.14158l0.00008,0.00026c1.28294,4.12751 2.3068,8.19334 3.07159,12.19747c0.30262,1.58433 0.5887,3.2812 0.85823,5.0906z"></path><path  id="分叶脉1" style="fill:#FFFFFF; opacity:1;" d="M40.1229,43.0139c0,0.02993 -0.00267,0.05963 -0.008,0.0891c-0.00533,0.02953 -0.01327,0.0583 -0.0238,0.0863c-0.01047,0.02807 -0.02337,0.05497 -0.0387,0.0807c-0.01533,0.02573 -0.03287,0.0499 -0.0526,0.0725c-0.01967,0.02253 -0.0412,0.04317 -0.0646,0.0619c-0.0234,0.01873 -0.04827,0.0352 -0.0746,0.0494c-0.0264,0.01427 -0.05383,0.02603 -0.0823,0.0353c-0.02847,0.00933 -0.05753,0.01603 -0.0872,0.0201c-6.53593,1.03767 -13.59987,2.55377 -21.1918,4.5483c-4.90387,1.28833 -9.69854,2.6858 -14.38401,4.1924l-0.30611,-0.952c4.70261,-1.51213 9.51462,-2.91467 14.43602,-4.2076c7.62773,-2.00393 14.7273,-3.52733 21.2987,-4.5702v0.0001c0.0262,-0.0042 0.05253,-0.0063 0.079,-0.0063c0.03287,0 0.0654,0.0032 0.0976,0.0096c0.0322,0.0064 0.06347,0.0159 0.0938,0.0285c0.03033,0.01253 0.05913,0.02793 0.0864,0.0462c0.02733,0.0182 0.0526,0.0389 0.0758,0.0621c0.0232,0.02327 0.04393,0.04853 0.0622,0.0758c0.0182,0.02727 0.0336,0.05607 0.0462,0.0864c0.01253,0.03033 0.022,0.0616 0.0284,0.0938c0.0064,0.0322 0.0096,0.06473 0.0096,0.0976z"></path><path  id="主叶脉" style="fill:#FFFFFF; opacity:1;" d="M38.5381,0c0,0.11026 -0.0329,0.20965 -0.0987,0.29816l0.0013,0.00092c-5.3972,7.23021 -9.66933,13.02758 -12.8164,17.39211c-3.98053,5.5204 -7.1621,10.1206 -9.5447,13.8006c-4.66693,7.20427 -8.30217,13.6872 -10.90573,19.4488c-0.95939,2.12307 -1.80048,4.1985 -2.52327,6.2263c-0.41632,1.168 -0.89632,2.64003 -1.44,4.4161c-0.33549,1.09593 -0.58209,1.8644 -0.7398,2.3054l-0.94159,-0.3368c0.1525,-0.4264 0.39424,-1.18017 0.7252,-2.2613c0.54811,-1.79053 1.03286,-3.27693 1.45425,-4.4592c0.73197,-2.05353 1.58329,-4.1543 2.55394,-6.3023c2.62424,-5.8074 6.28351,-12.3343 10.97781,-19.5807c2.3916,-3.694 5.58253,-8.30793 9.5728,-13.8418c3.14553,-4.36233 7.41283,-10.15333 12.8019,-17.373c0.02253,-0.03572 0.04917,-0.06807 0.0799,-0.09705c0.03073,-0.02898 0.0646,-0.05366 0.1016,-0.07406c0.03693,-0.0204 0.07587,-0.03586 0.1168,-0.0464c0.04087,-0.01053 0.08243,-0.0158 0.1247,-0.0158c0.0328,0 0.0653,0.0032 0.0975,0.00961c0.0322,0.00641 0.06347,0.01589 0.0938,0.02845c0.03033,0.01256 0.05917,0.02797 0.0865,0.04621c0.02727,0.01824 0.0525,0.03897 0.0757,0.06218c0.0232,0.02321 0.04393,0.04847 0.0622,0.07577c0.01827,0.0273 0.03367,0.05611 0.0462,0.08644c0.0126,0.03033 0.0221,0.0616 0.0285,0.0938c0.0064,0.0322 0.0096,0.06471 0.0096,0.09755z"></path></g></g></g><defs><rect id="path_0" x="0" y="0" width="128" height="128" /></defs></svg>