<?xml version="1.0" encoding="utf-8"?>
<svg version="1.0" xmlns="http://www.w3.org/2000/svg" xmlns:xlink="http://www.w3.org/1999/xlink" 
	 width="800px" height="800px" viewBox="0 0 64 64" enable-background="new 0 0 64 64" xml:space="preserve">
<g>
	<path fill="#fff" d="M40,56H24c-2.211,0-4,1.789-4,4s1.789,4,4,4h16c2.211,0,4-1.789,4-4S42.211,56,40,56z"/>
	<path fill="#fff" d="M32,0C16.539,0,4,12.539,4,28c0,9.445,4.695,17.777,11.863,22.844C16.438,51.25,17.375,52,20,52
		s21.812,0,24,0s3.559-0.746,4.133-1.152C55.305,45.781,60,37.445,60,28C60,12.539,47.461,0,32,0z M36,44h-8V24c0-2.211,1.789-4,4-4
		s4,1.789,4,4V44z"/>
</g>
</svg>